<svg id="Layer_1" xmlns="http://www.w3.org/2000/svg" viewBox="0 0 262.93 263.03">
    <g opacity=".2"><circle cx="185.34" cy="75.24" r="14.79" fill="#b3ab50" stroke-width="0"/>
        <path d="m241.88,85.15c-1.73-3.24-5.76-4.46-9-2.74-.11.06-11.02,5.85-21.29,8.81-9.48,2.73-19.54,2.69-24.98,2.67h-1.27s-1.27,0-1.27,0c-5.42.03-15.49.06-24.98-2.67-10.27-2.95-21.18-8.75-21.29-8.81-3.24-1.73-7.27-.5-9,2.74-1.73,3.24-.51,7.27,2.73,9,.49.26,12.23,6.5,23.88,9.86,4.91,1.41,9.79,2.18,14.28,2.63l2.9,84.58c.14,3.99,3.42,7.14,7.38,7.14.08,0,.17,0,.26,0,4.08-.14,7.28-3.56,7.13-7.64l-1.6-46.59h4.39l13.19,7.33-9.7,11.1c-2.68,3.07-2.37,7.74.7,10.43,3.08,2.69,7.74,2.37,10.43-.7l15.72-17.99c1.47-1.68,2.1-3.93,1.72-6.13-.39-2.2-1.74-4.1-3.69-5.19l-18-10,.51-26.33c4.47-.44,9.35-1.22,14.24-2.63,11.65-3.35,23.39-9.59,23.88-9.86,3.24-1.73,4.46-5.76,2.73-9Z" fill="#b3ab50" stroke-width="0"/><path d="m185.33,45.18c2.35,0,4.25-1.9,4.25-4.25v-8.55c0-2.35-1.91-4.25-4.25-4.25s-4.25,1.9-4.25,4.25v8.55c0,2.35,1.91,4.25,4.25,4.25Z" fill="#b3ab50" stroke-width="0"/><path d="m205.5,51.73c1.31,0,2.61-.61,3.44-1.75l5.02-6.91c1.38-1.9.96-4.56-.94-5.94-1.9-1.38-4.55-.96-5.94.94l-5.02,6.91c-1.38,1.9-.96,4.56.94,5.94.75.55,1.63.81,2.49.81Z" fill="#b3ab50" stroke-width="0"/><path d="m213.93,65.95c.58,1.8,2.25,2.94,4.04,2.94.43,0,.88-.07,1.31-.21l8.13-2.64c2.23-.73,3.45-3.12,2.73-5.36-.73-2.23-3.11-3.45-5.36-2.73l-8.13,2.64c-2.23.73-3.45,3.12-2.73,5.36Z" fill="#b3ab50" stroke-width="0"/><path d="m161.73,49.98c.83,1.14,2.13,1.75,3.44,1.75.87,0,1.74-.26,2.49-.81,1.9-1.38,2.32-4.04.94-5.94l-5.02-6.91c-1.38-1.9-4.03-2.32-5.94-.94-1.9,1.38-2.32,4.04-.94,5.94l5.02,6.91Z" fill="#b3ab50" stroke-width="0"/><path d="m143.26,66.04l8.13,2.64c.44.14.88.21,1.31.21,1.79,0,3.46-1.14,4.04-2.94.73-2.23-.5-4.63-2.73-5.36l-8.13-2.64c-2.24-.73-4.63.5-5.36,2.73-.73,2.23.5,4.63,2.73,5.36Z" fill="#b3ab50" stroke-width="0"/></g></svg>