<?xml version="1.0" encoding="UTF-8"?><svg id="Layer_1" xmlns="http://www.w3.org/2000/svg" xmlns:xlink="http://www.w3.org/1999/xlink" viewBox="0 0 127.56 127.56"><defs><clipPath id="clippath"><rect x="79.17" y="49.24" width="29.9" height="42.63" fill="none" stroke-width="0"/></clipPath></defs><path d="m79.17,37.86h28.17c2.68,0,4.84,2.17,4.84,4.84v55.71c0,2.68-2.17,4.84-4.84,4.84h-29.17" fill="none" stroke="#b3ab50" stroke-linecap="round" stroke-linejoin="round" stroke-width="2.5"/><circle cx="103.71" cy="106.89" r="3.63" fill="none" stroke="#b3ab50" stroke-linecap="round" stroke-linejoin="round" stroke-width="2.5"/><path d="m95.23,23.32h-16.96c-1.34,0-2.42-1.08-2.42-2.42h0c0-1.34,1.08-2.42,2.42-2.42h16.96c1.34,0,2.42,1.08,2.42,2.42h0c0,1.34-1.08,2.42-2.42,2.42Z" fill="none" stroke="#b3ab50" stroke-linecap="round" stroke-linejoin="round" stroke-width="2.5"/><line x1="97.65" y1="20.9" x2="97.65" y2="37.86" fill="none" stroke="#b3ab50" stroke-linecap="round" stroke-linejoin="round" stroke-width="2.5"/><line x1="75.85" y1="20.9" x2="75.85" y2="31.85" fill="none" stroke="#b3ab50" stroke-linecap="round" stroke-linejoin="round" stroke-width="2.5"/><rect x="15.38" y="31.04" width="62.51" height="80.36" rx="5.95" ry="5.95" fill="none" stroke="#b3ab50" stroke-linecap="round" stroke-linejoin="round" stroke-width="2.5"/><circle cx="25.79" cy="115.87" r="4.46" fill="none" stroke="#b3ab50" stroke-linecap="round" stroke-linejoin="round" stroke-width="2.5"/><circle cx="67.46" cy="115.87" r="4.46" fill="none" stroke="#b3ab50" stroke-linecap="round" stroke-linejoin="round" stroke-width="2.5"/><path d="m57.05,13.18h-20.84c-1.64,0-2.98-1.33-2.98-2.98h0c0-1.64,1.33-2.98,2.98-2.98h20.84c1.64,0,2.98,1.33,2.98,2.98h0c0,1.64-1.33,2.98-2.98,2.98Z" fill="none" stroke="#b3ab50" stroke-linecap="round" stroke-linejoin="round" stroke-width="2.5"/><line x1="60.02" y1="10.2" x2="60.02" y2="31.04" fill="none" stroke="#b3ab50" stroke-linecap="round" stroke-linejoin="round" stroke-width="2.5"/><line x1="33.23" y1="10.2" x2="33.23" y2="31.04" fill="none" stroke="#b3ab50" stroke-linecap="round" stroke-linejoin="round" stroke-width="2.5"/><path d="m69.29,58.42c-1.9-.35-3.7.24-6.13,3.22l-8.1,9.89-1.96-4.04h1.66l.28-1.6h-8.67l.58-3.3,2.27-.59.21-1.22h-6.97l-.21,1.22,2.48.59-1.44,11.22-6.98-13.04h-5.62c-3.46,0-5.05.99-6.16,2.78-.98,1.57-.72,3.04.46,3.6.9.43,2.05.04,2.63-.88.57-.92.41-1.81-.41-2.21-.42-.21-1.08-.24-1.56.06l-.03-.05c.73-1.13,2.38-1.61,4.47-1.5l.92.04-2.79,15.95-2.45.62-.21,1.22h7.3l.21-1.22-2.53-.62,1.88-14.39,9.02,16.35h2.37l2.3-13.02h1.12s.46,0,.46,0l3.32,5.68-5.12,5.74h-1.21l-.28,1.6h5.29l.28-1.6h-1.66l3.44-4.62,2.27,4.62h-1.69l-.28,1.6h8.19l.28-1.6h-1.12l-3.22-5.66,3.81-4.87,4.75-5.98c1.4-1.9,2.92-2.89,4.14-2.7v.06c-.52.19-.97.77-1.15,1.28-.35.98.09,1.76,1.07,1.93.98.18,2.05-.51,2.43-1.58.49-1.4-.22-2.67-1.9-2.97Z" fill="#b3ab50" stroke-width="0"/><g clip-path="url(#clippath)"><path d="m105.86,61.51c-1.43-.26-2.78.18-4.61,2.42l-6.08,7.43-1.47-3.03h1.25l.21-1.2h-6.51l.44-2.48,1.71-.45.16-.91h-5.24l-.16.91,1.86.45-1.08,8.42-5.24-9.79h-4.22c-2.6,0-3.79.74-4.63,2.09-.73,1.18-.54,2.28.34,2.71.68.33,1.54.03,1.97-.66.43-.69.31-1.36-.31-1.66-.32-.15-.81-.18-1.17.04l-.02-.04c.55-.85,1.78-1.21,3.36-1.13l.69.03-2.1,11.98-1.84.47-.16.91h5.48l.16-.91-1.9-.47,1.42-10.81,6.77,12.28h1.78l1.72-9.78h.84s.34,0,.34,0l2.49,4.26-3.84,4.31h-.91l-.21,1.2h3.97l.21-1.2h-1.25l2.59-3.47,1.7,3.47h-1.27l-.21,1.2h6.15l.21-1.2h-.84l-2.42-4.25,2.86-3.66,3.57-4.49c1.06-1.42,2.19-2.17,3.11-2.03v.05c-.39.14-.73.58-.86.96-.26.74.06,1.32.8,1.45.74.13,1.54-.39,1.82-1.19.37-1.05-.17-2-1.42-2.23Z" fill="#b3ab50" stroke-width="0"/></g></svg>