<?xml version="1.0" encoding="UTF-8"?>
<svg id="Layer_1" xmlns="http://www.w3.org/2000/svg" viewBox="0 0 233.14 66.08"><path d="m107.42,65.39c.62.35,1.86.69,3.09.69,2.98,0,4.22-1.49,4.22-3.09s-.92-2.39-2.82-3c-1.36-.43-1.99-.7-1.99-1.34,0-.5.49-.93,1.51-.93,1.09,0,1.9.32,2.33.51l.56-1.84c-.68-.31-1.56-.54-2.85-.54-2.41,0-3.94,1.27-3.94,2.99,0,1.63,1.27,2.48,3.01,2.98,1.3.38,1.78.73,1.78,1.31,0,.65-.57,1.06-1.64,1.06s-2.1-.35-2.76-.7l-.51,1.91Zm-10.48-5.5h-4.1v-1.99h4.35v-1.88h-6.68v9.88h6.91v-1.88h-4.57v-2.24h4.1v-1.88Zm-24.16,5.5c.62.35,1.86.69,3.09.69,2.98,0,4.22-1.49,4.22-3.09s-.92-2.39-2.82-3c-1.36-.43-1.99-.7-1.99-1.34,0-.5.49-.93,1.51-.93,1.09,0,1.9.32,2.33.51l.56-1.84c-.68-.31-1.56-.54-2.85-.54-2.41,0-3.94,1.27-3.94,2.99,0,1.63,1.27,2.48,3.01,2.98,1.3.38,1.78.73,1.78,1.31,0,.65-.57,1.06-1.64,1.06s-2.1-.35-2.76-.7l-.51,1.91Zm-12.78.51h2.34v-9.88h-2.34v9.88Zm-19.63-9.88v5.32c0,3.36,1.67,4.73,4.31,4.73,2.81,0,4.55-1.47,4.55-4.69v-5.37h-2.34v5.44c0,1.84-.73,2.81-2.11,2.81s-2.07-1.01-2.07-2.81v-5.44h-2.34Zm-15.63,1.71c.17-.04.53-.08,1.19-.08,1.07,0,1.79.42,1.79,1.34,0,.86-.73,1.39-1.93,1.39h-1.05v-2.65Zm-2.31,8.17h2.31v-3.86h.79c1.01.02,1.46.34,1.77,1.58.32,1.27.58,1.99.74,2.28h2.38c-.2-.39-.51-1.7-.85-2.83-.27-.86-.67-1.52-1.36-1.8v-.05c.8-.25,1.82-1.1,1.82-2.42,0-.93-.37-1.63-.96-2.08-.73-.55-1.78-.8-3.39-.8-1.34,0-2.5.1-3.26.22v9.75Zm-10.75-2.11c-.51.22-1.38.38-2.18.38-2.26,0-3.52-1.35-3.52-3.21,0-2.11,1.52-3.23,3.5-3.23.92,0,1.69.21,2.2.43l.5-1.82c-.45-.24-1.47-.5-2.8-.5-3.34,0-5.87,2-5.87,5.25,0,2.82,1.95,4.98,5.67,4.98,1.36,0,2.43-.27,2.87-.49l-.38-1.8Z" fill="#bdb769" stroke-width="0"/><path d="m111.03,45.99h15.41l.59-3.32h-2.76l3.38-19.16c2.53-1.94,4.89-2.88,7.33-2.88s3.2.69,2.73,3.32l-3.3,18.73h-2.82l-.59,3.32h14.78l.59-3.32h-2.82l3.13-17.72c1.1-6.26-1.57-10.27-7.02-10.27-4.51,0-8.33,2.82-11.89,6.7l-.11-.06,1.1-6.26h-2.07l-11.37,3.38-.41,2.32,3.77,1.69-3.57,20.23h-3.51l-.59,3.32Z" fill="#bdb769" stroke-width="0"/><path d="m228.89.18c-3.94-.72-7.68.51-12.72,6.68l-16.79,20.51-4.07-8.38h3.44l.59-3.32h-15.66s-10.21,0-10.21,0l-.59,3.32h3.26l-9.94,19.1-3.77-19.1h3.82l.59-3.32h-16.16l-.59,3.32h2.32l6.95,26.99h1.32l-1.04,2c-2.25,4.26-5.08,6.76-7.72,6.83l-.04-.13c1.04-.56,1.77-1.88,1.96-2.94.36-2.07-.83-3.44-2.96-3.44s-4.13,1.75-4.53,4.01c-.52,2.94,1.46,5.2,5.1,5.2,4.13,0,7.71-1.82,11.72-8.58l17.8-29.94h.88s2.19,0,2.19,0l6.88,11.77-10.62,11.9h-2.51l-.59,3.32h10.96l.59-3.32h-3.44l7.14-9.58,4.7,9.58h-3.51l-.59,3.32h16.97l.59-3.32h-2.32l-6.68-11.75,7.9-10.09,9.84-12.4c2.91-3.93,6.05-5.99,8.59-5.59l.02.13c-1.09.39-2.03,1.6-2.4,2.65-.72,2.04.18,3.64,2.21,4.01,2.03.37,4.25-1.06,5.04-3.28,1.02-2.9-.47-5.53-3.93-6.16Z" fill="#bdb769" stroke-width="0"/><path d="m59.05,26.82c1.81-7.77,4.24-9.46,7.05-9.46s3.68,2.19,2.72,9.46h-9.77Zm1.61,19.67c5.32,0,10.04-2.25,13.26-4.51l-.75-2.13c-2.84,1.19-5.58,2.19-8.9,2.19-5.89,0-7.46-2.82-5.96-11.34l.15-.88h18.98c1.57-10.33-3.21-15.16-10.79-15.16-9.02,0-16.6,7.14-18.23,16.35-1.52,8.64,2.03,15.47,12.24,15.47" fill="#bdb769" stroke-width="0"/><path d="m93.68,43.73c-3.76,0-5.58-2.44-3.69-13.15,1.91-10.83,4.64-13.15,8.33-13.15s5.61,2.25,3.69,13.15c-1.89,10.71-4.57,13.15-8.33,13.15m-.49,2.76c9.58,0,17.61-7.89,19.03-15.91,1.42-8.08-3.83-15.91-13.42-15.91s-17.54,7.83-18.96,15.91c-1.41,8.02,3.83,15.91,13.35,15.91" fill="#bdb769" stroke-width="0"/><path d="m53.83,4.6h-14.71l-.45,2.57,5.23,1.25-3.05,23.67L26.13,4.58h-11.85c-7.31,0-10.66,2.09-13.01,5.87-2.06,3.32-1.52,6.41.96,7.6,1.9.92,4.33.09,5.54-1.86,1.21-1.94.87-3.82-.87-4.66-.9-.43-2.29-.51-3.3.12l-.07-.11c1.55-2.38,5.01-3.39,9.44-3.17l1.94.08-5.89,33.66-5.18,1.31-.45,2.57h15.4l.45-2.57-5.34-1.31,3.98-30.37,19.02,34.5h5.01l6.67-37.82,4.79-1.25.45-2.57Z" fill="#bdb769" stroke-width="0"/></svg>
