<?xml version="1.0" encoding="UTF-8"?><svg id="Layer_1" xmlns="http://www.w3.org/2000/svg" viewBox="0 0 179.24 70.81"><path d="m170.92,47.57c-.82.6-1.47,1.08-2.87,1.08s-2.05-.48-2.87-1.08c-.15-.11-.31-.23-.48-.34-.5-.34-.75-.93-.62-1.52l2.54-11.74c.25-1.16-.35-2.33-1.44-2.8l-3.38-1.47c-.47-.2-.8-.64-.86-1.15l-1.39-11.13c-.09-.73-.71-1.27-1.44-1.27h-1.97c-.73,0-1.35-.55-1.44-1.27l-.3-2.42c-.09-.73-.71-1.27-1.44-1.27h-.38c-.8,0-1.45-.65-1.45-1.45v-1.81c0-.8-.65-1.45-1.45-1.45h-5.09c-.8,0-1.45.65-1.45,1.45v1.81c0,.8-.65,1.45-1.45,1.45h-.38c-.73,0-1.35.55-1.44,1.27l-.3,2.42c-.09.73-.71,1.27-1.44,1.27h-1.97c-.73,0-1.35.54-1.44,1.27l-1.39,11.13c-.06.51-.39.95-.86,1.15l-3.38,1.47c-1.09.47-1.69,1.65-1.44,2.8l2.55,11.82c.13.58-.12,1.17-.61,1.51-.13.09-.26.19-.38.27-.82.6-1.47,1.08-2.87,1.08s-2.05-.48-2.87-1.08c-.72-.53-1.58-1.16-2.96-1.39-.6-.1-1.13.4-1.13,1h0c0,.5.34.95.83,1.04.86.15,1.4.54,2.03,1.01.9.66,2.01,1.48,4.09,1.48s3.19-.82,4.09-1.48c.82-.6,1.47-1.08,2.87-1.08s2.05.48,2.87,1.08c.9.66,2.01,1.48,4.09,1.48s3.19-.82,4.09-1.48c.82-.6,1.47-1.08,2.87-1.08s2.05.48,2.87,1.08c.9.66,2.01,1.48,4.09,1.48s3.19-.82,4.09-1.48c.82-.6,1.47-1.08,2.87-1.08s2.05.48,2.87,1.08c.9.66,2.01,1.48,4.09,1.48s3.19-.82,4.09-1.48c.64-.47,1.17-.86,2.03-1.01.49-.09.83-.54.83-1.04h0c0-.61-.54-1.1-1.13-1-1.38.23-2.24.86-2.96,1.39Zm-27.8-34.33h.62c.8,0,1.45-.65,1.45-1.45v-1.81c0-.8.65-1.45,1.45-1.45h.96c.8,0,1.45.65,1.45,1.45v1.81c0,.8.65,1.45,1.45,1.45h.62c.73,0,1.35.55,1.44,1.27h0c.11.86-.57,1.63-1.44,1.63h-8c-.87,0-1.55-.76-1.44-1.63h0c.09-.73.71-1.27,1.44-1.27Zm-6.59,6.24c.09-.73.71-1.27,1.44-1.27h18.31c.73,0,1.35.54,1.44,1.27l.8,6.41c.14,1.11-.99,1.96-2.02,1.51l-8.97-3.89s-.03,0-.04-.01c-.04-.02-.08-.03-.12-.04-.04-.01-.08-.02-.12-.03-.04,0-.08,0-.13,0s-.08,0-.13,0c-.04,0-.08.02-.12.03-.04.01-.08.02-.12.04-.01,0-.03,0-.04.01l-8.97,3.89c-1.03.45-2.16-.4-2.02-1.51l.8-6.41Zm24.57,26.61c-2.08,0-3.19.82-4.09,1.48-.82.6-1.47,1.08-2.87,1.08s-2.05-.48-2.87-1.08c-.9-.66-2.01-1.48-4.09-1.48s-3.19.82-4.09,1.48c-.82.6-1.47,1.08-2.87,1.08s-2.05-.48-2.87-1.08c-.9-.66-2.01-1.48-4.09-1.48-.33,0-.62.03-.9.06l-2.55-11.79c-.15-.68.21-1.36.84-1.64l13.4-5.8c.96-.42,2.03.29,2.03,1.33v12.6c0,.56.45,1.01,1.01,1.01h.04c.56,0,1.01-.45,1.01-1.01v-12.6c0-1.04,1.07-1.75,2.03-1.33l13.4,5.8c.64.28.99.96.84,1.64l-2.54,11.77c-.24-.03-.5-.04-.78-.04Z" fill="#b3ab50" stroke-width="0"/><path d="m162.56,34.46c-.55-.1-1.08.07-1.79.94l-2.36,2.88-.57-1.18h.48l.08-.47h-2.53l.17-.96.66-.17.06-.35h-2.03l-.06.35.72.17-.24,1.9c-.05.42-.62.53-.82.15l-1.26-2.35c-.08-.14-.23-.23-.39-.23h-1.37c-1.01,0-1.47.29-1.8.81-.28.46-.21.88.13,1.05.26.13.6.01.77-.26.17-.27.12-.53-.12-.64-.12-.06-.32-.07-.45.02h0c.21-.34.69-.48,1.3-.45h.27s-.81,4.66-.81,4.66l-.71.18-.06.35h2.13l.06-.35-.74-.18.37-2.86c.06-.42.62-.53.82-.16l1.98,3.59h.69l.67-3.79h.33s.13,0,.13,0l.81,1.38c.1.16.08.37-.05.52l-1.28,1.43h-.35l-.08.47h1.54l.08-.47h-.48l1-1.35.66,1.35h-.49l-.08.47h2.38l.08-.47h-.33l-.79-1.39c-.09-.16-.07-.35.04-.49l.93-1.19,1.38-1.74c.41-.55.85-.84,1.21-.79v.02c-.15.06-.28.22-.33.37-.1.29.03.51.31.56.29.05.6-.15.71-.46.14-.41-.07-.78-.55-.87Z" fill="#b3ab50" stroke-width="0"/><path d="m99.2,16.11h-1.72c-.12,0-.23.04-.32.12l-.31.27c-.25.22-.63.13-.76-.17l-1.15-2.61c-.41-1.03-1.23-1.58-2.38-1.59l-.28-.92c-.22-.71-.88-1.2-1.63-1.2h-5.4c-.75,0-1.41.49-1.63,1.2l-.28.91h-.21c-1.17,0-2.01.55-2.41,1.58l-1.16,2.63c-.13.3-.52.39-.76.17l-.31-.27c-.09-.08-.2-.12-.32-.12h-1.72c-.27,0-.48.22-.48.48s.22.48.48.48h1.35c.12,0,.23.04.32.12l.18.15c.22.2.22.54,0,.74l-.36.3c-.77.65-1.22,1.61-1.22,2.62v3.46c0,.57.27,1.08.69,1.41.11.09.19.21.19.36v.85c0,.94.76,1.71,1.71,1.71h.99c.94,0,1.71-.76,1.71-1.71v-.35c0-.27.22-.48.48-.48h10.74c.27,0,.48.22.48.48v.35c0,.94.76,1.71,1.71,1.71h.99c.94,0,1.71-.76,1.71-1.71v-.89c0-.15.08-.28.19-.38.37-.33.61-.81.61-1.35v-3.46c0-1.01-.45-1.97-1.22-2.62l-.36-.3c-.23-.19-.23-.54,0-.74l.18-.16c.09-.08.2-.12.32-.12h1.35c.27,0,.48-.22.48-.48s-.22-.48-.48-.48Zm-13.4-5.13h4.17c.72,0,1.36.46,1.6,1.14h-7.36c.24-.68.87-1.14,1.6-1.14Zm-5.58,6.3l1.41-3.2c.26-.67.74-.98,1.51-.98h9.39c.77,0,1.25.31,1.52,1l1.4,3.19c.08.19.04.42-.12.56l-.71.63c-.09.08-.2.12-.32.12h-12.93c-.12,0-.23-.04-.32-.12l-.71-.63c-.16-.14-.21-.37-.12-.56Zm.83,9.82c0,.41-.33.74-.74.74h-.99c-.41,0-.74-.33-.74-.74v-.35c0-.27.22-.48.48-.48h1.5c.27,0,.48.22.48.48v.35Zm16.11,0c0,.41-.33.74-.74.74h-.99c-.41,0-.74-.33-.74-.74v-.35c0-.27.22-.48.48-.48h1.96s.02,0,.02,0v.83Zm.8-6.08v2.97c0,.72-.59,1.31-1.31,1.31h-17.64c-.72,0-1.31-.59-1.31-1.31v-2.97c0-.72.32-1.41.87-1.88l.9-.76.28.25.92.81c.09.08.2.12.32.12h13.66c.12,0,.23-.04.32-.12l.92-.81.28-.25.9.76c.55.47.87,1.15.87,1.88Z" fill="#b3ab50" stroke-width="0"/><path d="m91.46,23.49h-7.26c-.27,0-.48.22-.48.48s.22.48.48.48h7.26c.27,0,.48-.22.48-.48s-.22-.48-.48-.48Z" fill="#b3ab50" stroke-width="0"/><path d="m84.37,22.44c.07-.18.03-.4-.12-.53l-1.47-1.39c-.19-.18-.5-.17-.69.02-.18.19-.18.5.02.69l.59.55h-2.13c-1.01,0-1.36-1.01-1.38-1.06-.08-.25-.36-.39-.61-.31-.25.08-.39.36-.31.61.02.07.58,1.73,2.3,1.73h3.35c.2,0,.38-.12.45-.31Z" fill="#b3ab50" stroke-width="0"/><path d="m96.47,20.72s-.37,1.06-1.38,1.06h-2.13l.59-.55c.19-.18.2-.49.02-.69-.18-.19-.49-.2-.69-.02l-1.47,1.39c-.14.14-.19.35-.12.53.07.18.25.31.45.31h3.35c1.72,0,2.28-1.66,2.3-1.73.08-.25-.06-.52-.31-.61-.25-.08-.53.05-.61.31Z" fill="#b3ab50" stroke-width="0"/><path d="m40.12,31.9h-8.66l.28-.36-10.06-7.8c-.14-.11-.32-.17-.49-.17h-4.46c-.31,0-.59.17-.72.45-.14.28-.1.6.09.85l4.32,5.6,1.28-.98-3.32-4.3h2.54l8.65,6.71h-12.9l-8.09-7.15c-.15-.13-.34-.2-.53-.2h-3.74c-.28,0-.55.15-.69.39-.15.24-.15.55-.02.8l3.34,6.17h-2.63c-.45,0-.81.36-.81.81v3.74c0,.33.21.63.52.75.41.16,10.18,3.91,13.19,3.91h5.6l-6.72,8.71c-.19.24-.22.57-.09.85.14.28.42.45.72.45h4.46c.18,0,.35-.06.49-.17l12.69-9.84h11.13c1.95,0,4.84-1.13,4.84-3.55,0-2.64-5.44-5.66-10.21-5.66Zm5.37,7.6h-11.4c-.18,0-.35.06-.49.17l-12.69,9.84h-2.54l6.72-8.71c.23-.3.22-.71-.02-1-.16-.2-.41-.3-.66-.29h-7.21c-2.12,0-9.02-2.44-12.1-3.61v-2.38h3.17c.28,0,.55-.15.69-.39.15-.24.15-.55.02-.8l-3.34-6.17h2.08l8.09,7.15c.15.13.34.2.53.2h23.76c4.44,0,8.6,2.78,8.6,4.05s-1.88,1.94-3.23,1.94Z" fill="#b3ab50" stroke-width="0"/><path d="m117.08,38.34h-58.49c-.55,0-1-.45-1-1s.45-1,1-1h58.49c.55,0,1,.45,1,1s-.45,1-1,1Z" fill="#b3ab50" stroke-width="0"/><path d="m102.75,47.11h-29.44c-1.98,0-3.59,1.59-3.64,3.55h0v11.35c0,.83.68,1.51,1.51,1.51h4.88c.58,1.23,1.83,2.08,3.27,2.08s2.69-.85,3.27-2.08h12c.58,1.23,1.83,2.08,3.27,2.08s2.69-.85,3.27-2.08h3.33c.83,0,1.51-.68,1.51-1.51v-11.26c0-2.15-1.33-3.64-3.24-3.64Zm-29.44,1.19h29.44c1.21,0,1.79.85,1.98,1.76h-33.77c.3-1.02,1.24-1.76,2.35-1.76Zm20.68,2.96v3.53h-3.71v-3.53h3.71Zm-4.9,0v3.53h-3.71v-3.53h3.71Zm-4.9,0v3.53h-3.71v-3.53h3.71Zm-4.9,0v3.53h-3.71v-3.53h3.71Zm.04,13.15c-1.34,0-2.43-1.09-2.43-2.43s1.09-2.43,2.43-2.43,2.43,1.09,2.43,2.43-1.09,2.43-2.43,2.43Zm18.54,0c-1.34,0-2.43-1.09-2.43-2.43s1.09-2.43,2.43-2.43,2.43,1.09,2.43,2.43-1.09,2.43-2.43,2.43Zm6.92-2.4c0,.18-.14.32-.32.32h-3.01c.01-.11.02-.23.02-.34,0-1.99-1.62-3.62-3.62-3.62s-3.62,1.62-3.62,3.62c0,.12,0,.23.02.34h-11.34c.01-.11.02-.23.02-.34,0-1.99-1.62-3.62-3.62-3.62s-3.62,1.62-3.62,3.62c0,.12,0,.23.02.34h-4.55c-.18,0-.32-.14-.32-.32v-10.75h3.52v3.53h-1.73c-.3.04-.54.29-.54.6s.24.56.54.59h0s.04,0,.04,0c0,0,0,0,.01,0s0,0,.01,0h24.07s0,0,.01,0,0,0,.01,0h.11v-.02c.27-.06.48-.29.48-.57s-.21-.51-.48-.57v-.02h-1.73v-3.53h3.71v4.7l.17.17c.88.91,4.33,1.92,5.73,2.31v3.58Zm0-4.81c-1.77-.5-3.97-1.25-4.71-1.76v-4.18h4.71v5.94Z" fill="#b3ab50" stroke-width="0"/></svg>