<svg id="Layer_1" xmlns="http://www.w3.org/2000/svg" viewBox="0 0 259.34 308.97"><g opacity=".2"><path d="m240.66,185.11h-117.75c-1,0-1.81.81-1.81,1.81s.81,1.81,1.81,1.81h2.92l.03.14c.33,1.32,1.09,2.74,1.67,3.69.96,1.58,2.43,3.58,3.94,4.09.19.06.38.1.59.1h24.69l.04.35h-.05c-1.04.22-2.03.7-2.77,1.36-1.03.91-1.58,2.13-1.57,3.44.03,2.71,2.09,4.18,3.6,5.25.46.33.89.64,1.21.93,2.24,2.07,1.13,5.57-.33,9.29-.4,1.02-.85,2.18-1.39,3.2-.73,1.4-1.44,2.32-2.24,2.9l-.29.21v-.79c0-1-.81-1.81-1.81-1.81h-6.2v-2.04c0-1-.81-1.81-1.81-1.81l-27.81.09c-1,0-1.81.81-1.81,1.81s.81,1.81,1.81,1.81l-.9,29.92c-1,0-1.81.81-1.81,1.81s.81,1.81,1.81,1.81h28.72c1,0,1.81-.81,1.81-1.81v-4.72h6.2c1,0,1.81-.81,1.81-1.81v-1.45l.15-.02c.68-.1,1.45-.24,2.27-.42,2.13-.46,5.6-1.35,9.98-3.02,5.86-2.24,11.23-5.11,15.96-8.54,3.12-2.26,5.77-4.89,7.73-6.93,1.34-1.39,2.68-2.87,3.87-4.17l.03-.04c2.6-2.85,5.28-5.79,8.22-8.3,3-2.56,6.58-5.13,10.96-7.86,2.09-1.3,2.92-3.53,2.07-5.55-.53-1.26-1.69-2.25-3.17-2.71l-.05-.02.05-.34h19.93c.16,0,.31-.02.47-.06,1.87-.5,3.58-2.75,4.43-4.05.63-.96,1.46-2.39,1.82-3.78l.04-.14h2.92c1,0,1.81-.81,1.81-1.81s-.81-1.81-1.81-1.81Zm-81.47,11.99l.03-.35h47.72l.04.34h-.05c-3.31.88-10.82,5-18.76,11.19-.81.63-1.63,1.3-2.54,2.04-3.54,2.88-7.95,6.45-10.59,6.45-.43,0-.81-.1-1.12-.29-1.11-.71-2.09-3.81-2.88-6.3-.94-2.99-1.92-6.08-3.62-8.31-1.7-2.23-5.07-4.19-8.18-4.76h-.05Z" fill="#b3ab50" stroke-width="0"/><path d="m183.5,177.76c-7.18.38-13.59-5.65-13.94-13.12-.36-7.6,5.42-14.06,12.91-14.44,7.89-.4,14.36,5.43,14.74,13.27.36,7.66-5.58,13.86-13.7,14.3Z" fill="#b3ab50" stroke-width="0"/><path d="m179.84,142.85c-1.01-12.06-2.5-22.88-4.47-32.48-1.97-9.59-3.96-17.96-5.98-25.09,1.24-3.34,3.23-5.9,5.98-7.66,2.75-1.76,5.65-2.64,8.68-2.64,2.81,0,5.42.79,7.84,2.38,2.42,1.58,4.24,4.05,5.48,7.39-.45,1.76-.9,3.45-1.35,5.08-.45,1.63-.9,3.24-1.35,4.82-.9,3.08-1.74,6.05-2.53,8.91-.79,2.86-1.52,5.79-2.19,8.78-.9,4.4-1.63,9.26-2.19,14.59-.56,5.33-1.07,10.63-1.52,15.91h-6.41Z" fill="#b3ab50" stroke-width="0"/></g></svg>