<?xml version="1.0" encoding="UTF-8"?><svg id="Layer_1" xmlns="http://www.w3.org/2000/svg" viewBox="0 0 98.84 82.67"><path d="m82.82,37.39h1.31c1.45,0,2.62,1.17,2.62,2.62v13.1c0,1.45-1.17,2.62-2.62,2.62h-20.57c-1.66,0-3.01-1.35-3.01-3.01v-7.08c0-1.66,1.35-3.01,3.01-3.01" fill="none" stroke="#b3ab50" stroke-linecap="round" stroke-linejoin="round" stroke-width="2.5"/><path d="m18.64,26.91h60.25c1.45,0,2.62,1.17,2.62,2.62v13.1" fill="none" stroke="#b3ab50" stroke-linecap="round" stroke-linejoin="round" stroke-width="2.5"/><path d="m18.64,26.91c-3.62,0-6.55-1.76-6.55-3.93s2.93-3.93,6.55-3.93" fill="none" stroke="#b3ab50" stroke-linecap="round" stroke-linejoin="round" stroke-width="2.5"/><path d="m12.09,24.29v43.23h0c0,2.21,1.81,3.99,4.02,3.96l2.53-.03h60.25c1.45,0,2.62-1.17,2.62-2.62v-11.79" fill="none" stroke="#b3ab50" stroke-linecap="round" stroke-linejoin="round" stroke-width="2.5"/><polyline points="71.48 26.91 66.07 11.19 20.4 26.91" fill="none" stroke="#b3ab50" stroke-linecap="round" stroke-linejoin="round" stroke-width="2.5"/><line x1="18.64" y1="19.05" x2="42.65" y2="19.05" fill="#fff" stroke="#b3ab50" stroke-linecap="round" stroke-linejoin="round" stroke-width="2.5"/><path d="m78.89,26.91v-5.24c0-1.45-1.17-2.62-2.62-2.62h-7.49" fill="none" stroke="#b3ab50" stroke-linecap="round" stroke-linejoin="round" stroke-width="2.5"/><line x1="63.17" y1="42.63" x2="81.51" y2="42.63" fill="#fff" stroke="#b3ab50" stroke-linecap="round" stroke-linejoin="round" stroke-width="2.5"/><path d="m57.21,39.61c-1.54-.28-3.01.2-4.98,2.61l-6.57,8.02-1.59-3.28h1.35l.23-1.3h-7.04l.47-2.68,1.84-.48.17-.99h-5.66l-.17.99,2.01.48-1.17,9.1-5.66-10.58h-4.56c-2.81,0-4.1.8-5,2.26-.79,1.28-.58,2.46.37,2.92.73.35,1.67.03,2.13-.71.46-.75.33-1.47-.34-1.79-.34-.17-.88-.2-1.27.05l-.03-.04c.59-.91,1.93-1.3,3.63-1.22l.74.03-2.26,12.94-1.99.51-.17.99h5.92l.17-.99-2.05-.51,1.53-11.67,7.31,13.26h1.93l1.86-10.56h.91s.37,0,.37,0l2.69,4.61-4.15,4.66h-.98l-.23,1.3h4.29l.23-1.3h-1.35l2.79-3.75,1.84,3.75h-1.37l-.23,1.3h6.64l.23-1.3h-.91l-2.61-4.6,3.09-3.95,3.85-4.85c1.14-1.54,2.37-2.34,3.36-2.19v.05c-.42.15-.79.63-.93,1.04-.28.8.07,1.43.86,1.57.79.14,1.66-.42,1.97-1.28.4-1.13-.18-2.16-1.54-2.41Z" fill="#b3ab50" stroke-width="0"/></svg>