<?xml version="1.0" encoding="UTF-8"?><svg id="Layer_1" xmlns="http://www.w3.org/2000/svg" viewBox="0 0 92.19 110.13"><path d="m55.33,59.07c6.04,0,11.08-4.9,11.08-11.08s-4.98-11.08-11.08-11.08-11.08,5-11.08,11.08,4.92,11.08,11.08,11.08Zm3.36-1.9c.61-.77,1.13-1.74,1.54-2.87.65.19,1.3.41,1.93.68-.98.96-2.16,1.71-3.47,2.2Zm4.39-3.22c-.8-.36-1.62-.65-2.45-.89.36-1.33.58-2.82.63-4.42h3.84c-.13,1.91-.81,3.75-2.01,5.31Zm2.01-6.62h-3.84c-.05-1.59-.27-3.09-.63-4.42.83-.24,1.65-.54,2.45-.89,1.16,1.51,1.88,3.33,2.01,5.31Zm-2.93-6.34c-.63.26-1.28.49-1.93.68-.41-1.13-.93-2.11-1.54-2.87,1.31.48,2.49,1.24,3.47,2.19Zm-6.18-2.68c1.19.37,2.24,1.74,2.97,3.68-.97.2-1.96.32-2.97.35v-4.03Zm0,5.34c1.14-.04,2.27-.17,3.37-.41.33,1.23.54,2.63.59,4.1h-3.96v-3.69Zm0,4.99h3.96c-.05,1.47-.26,2.86-.59,4.1-1.1-.24-2.22-.37-3.37-.41v-3.69Zm0,4.99c1.01.04,2,.15,2.97.35-.72,1.94-1.78,3.3-2.97,3.68v-4.03Zm-7.48,1.35c.63-.26,1.28-.49,1.93-.68.41,1.13.93,2.11,1.54,2.87-1.31-.48-2.49-1.24-3.47-2.2Zm6.18,2.69c-1.19-.37-2.24-1.74-2.97-3.68.97-.2,1.96-.32,2.97-.35v4.03Zm0-5.34c-1.14.04-2.27.17-3.37.41-.33-1.23-.54-2.63-.59-4.1h3.96v3.69Zm0-4.99h-3.96c.05-1.47.26-2.86.59-4.1,1.1.24,2.22.37,3.37.41v3.69Zm0-9.02v4.03c-1.01-.04-2-.15-2.97-.35.72-1.94,1.78-3.3,2.97-3.68Zm-2.7.49c-.61.77-1.13,1.74-1.54,2.87-.65-.19-1.3-.41-1.93-.68.98-.96,2.16-1.71,3.47-2.19Zm-4.39,3.22c.8.36,1.62.65,2.45.89-.36,1.33-.58,2.82-.63,4.42h-3.84c.13-1.91.81-3.76,2.01-5.31Zm1.83,6.62c.05,1.59.27,3.09.63,4.42-.83.24-1.65.54-2.45.89-1.21-1.56-1.89-3.41-2.01-5.31h3.84Z" fill="#b3ab50" stroke-width="0"/><path d="m74.9,64.64c-1.54-.28-3.01.2-4.98,2.61l-6.57,8.02-1.59-3.28h1.35l.23-1.3h-7.04l.47-2.68,1.84-.48.17-.99h-5.66l-.17.99,2.01.48-1.17,9.1-5.66-10.58h-4.56c-2.81,0-4.1.8-5,2.26-.79,1.28-.58,2.46.37,2.92.73.35,1.67.03,2.13-.71.46-.75.33-1.47-.34-1.79-.34-.17-.88-.2-1.27.05l-.03-.04c.59-.91,1.93-1.3,3.63-1.22l.74.03-2.26,12.94-1.99.51-.17.99h5.92l.17-.99-2.05-.51,1.53-11.67,7.31,13.26h1.93l1.86-10.56h.91s.37,0,.37,0l2.69,4.61-4.15,4.66h-.98l-.23,1.3h4.29l.23-1.3h-1.35l2.79-3.75,1.84,3.75h-1.37l-.23,1.3h6.64l.23-1.3h-.91l-2.61-4.6,3.09-3.95,3.85-4.85c1.14-1.54,2.37-2.34,3.36-2.19v.05c-.42.15-.79.63-.93,1.04-.28.8.07,1.43.86,1.57.79.14,1.66-.42,1.97-1.28.4-1.13-.18-2.16-1.54-2.41Z" fill="#b3ab50" stroke-width="0"/><path d="m27.53,94.76L9.42,27.51c-.42-1.6.54-3.24,2.14-3.64l43.66-11.08c1.51-.38,3.05.53,3.44,2.03l2.43,7.73" fill="none" stroke="#b3ab50" stroke-miterlimit="10" stroke-width="2.5"/><rect x="27.53" y="22.56" width="55.33" height="74.86" rx="2.66" ry="2.66" fill="none" stroke="#b3ab50" stroke-miterlimit="10" stroke-width="2.5"/></svg>