<svg id="Layer_1" xmlns="http://www.w3.org/2000/svg" viewBox="0 0 262.93 263.03"><g opacity=".2"><path d="m169.69,71.8c6.01-.2,12.01,0,17.87,1.36,6.17,1.43,12.43,2.79,18.34,5.02,5.81,2.2,11.49,5.03,16.75,8.34,5.26,3.31,9.94,7.55,14.86,11.4.45.35.84.8,1.24,1.21,3.1,3.18,3.31,7.2.53,10.02-2.74,2.79-6.91,2.73-10.04-.33-8.39-8.19-17.95-14.64-29.08-18.34-31.41-10.45-59.56-4.64-84.25,17.53-1.2,1.07-2.5,2.2-3.95,2.78-2.81,1.12-5.91-.06-7.63-2.54-1.69-2.44-1.65-5.71.3-8.05,1.17-1.4,2.54-2.63,3.9-3.85,16.44-14.71,35.68-22.82,57.71-24.27,1.15-.08,2.3-.19,3.45-.29Z" fill="#b3ab50" stroke-width="0"/><path d="m171.82,112.53c-14.36.27-26.81,5.29-37.29,15.17-3.48,3.28-7.37,3.5-10.24.67-3.02-2.98-2.79-7,.72-10.38,9.61-9.26,20.96-15.37,34.07-17.74,22.24-4.02,41.96,1.5,58.92,16.53.93.83,1.86,1.69,2.63,2.67,1.97,2.52,1.82,6.44-.22,8.52-2.68,2.72-6.23,3.14-9.11,1.04-.77-.56-1.44-1.28-2.15-1.92-10.55-9.66-23-14.44-37.32-14.56Z" fill="#b3ab50" stroke-width="0"/><path d="m174.69,126.05c8.17.15,17.38,3.71,25.16,10.84,3.93,3.6,4.05,6.85.5,10.88-2.3,2.61-6.21,2.25-9.7-.89-10.9-9.81-26.04-9.73-37.2.21-2.88,2.56-5.65,3.12-8.41,1.58-2.61-1.45-4.03-3.78-3.46-6.7.33-1.67,1.33-3.43,2.53-4.65,7.15-7.23,17.57-11.3,30.57-11.28Z" fill="#b3ab50" stroke-width="0"/><path d="m172.32,180.15c-7.03.38-13.31-5.54-13.66-12.85-.35-7.44,5.31-13.77,12.64-14.15,7.73-.4,14.07,5.32,14.43,12.99.35,7.5-5.47,13.58-13.42,14Z" fill="#b3ab50" stroke-width="0"/></g></svg>