<?xml version="1.0" encoding="UTF-8"?><svg id="Layer_1" xmlns="http://www.w3.org/2000/svg" viewBox="0 0 179.24 60.35"><path d="m26.65,9.3c-10.9,0-16.19,2.18-16.19,6.67v21.3c0,3.39,2.76,6.15,6.15,6.15h3.14l-4.58,5.78c-.33.42-.26,1.02.16,1.35.18.14.39.21.6.21.28,0,.57-.13.76-.37l1.91-2.41c.08.02.16.03.24.03h15.67c.07,0,.15-.01.22-.03l1.9,2.4c.19.24.47.37.76.37.21,0,.42-.07.6-.21.42-.33.49-.94.16-1.35l-4.58-5.78h3.14c3.39,0,6.15-2.76,6.15-6.15V15.97c0-4.49-5.3-6.67-16.19-6.67Zm0,1.93c6.5,0,14.24.82,14.27,4.72H12.39c.02-3.9,7.77-4.72,14.27-4.72Zm-14.27,6.65h13.3v11.05h-13.3v-11.05Zm7.7,28.22l2.12-2.67h8.89l2.12,2.67h-13.13Zm20.83-8.82c0,2.33-1.89,4.22-4.22,4.22h-20.09c-2.33,0-4.22-1.89-4.22-4.22v-6.42h28.53v6.42Zm0-8.35h-13.3v-11.05h13.3v11.05Z" fill="#b3ab50" stroke-width="0"/><path d="m17.8,39.21c1.86,0,3.37-1.51,3.37-3.37s-1.51-3.37-3.37-3.37-3.37,1.51-3.37,3.37,1.51,3.37,3.37,3.37Zm0-4.82c.8,0,1.45.65,1.45,1.45s-.65,1.45-1.45,1.45-1.45-.65-1.45-1.45.65-1.45,1.45-1.45Z" fill="#b3ab50" stroke-width="0"/><path d="m35.51,39.21c1.86,0,3.37-1.51,3.37-3.37s-1.51-3.37-3.37-3.37-3.37,1.51-3.37,3.37,1.51,3.37,3.37,3.37Zm0-4.82c.8,0,1.45.65,1.45,1.45s-.65,1.45-1.45,1.45-1.45-.65-1.45-1.45.65-1.45,1.45-1.45Z" fill="#b3ab50" stroke-width="0"/><path d="m116.82,30.18h-58.49c-.55,0-1-.45-1-1s.45-1,1-1h58.49c.55,0,1,.45,1,1s-.45,1-1,1Z" fill="#b3ab50" stroke-width="0"/><path d="m170.66,47.45c-.82.6-1.47,1.08-2.87,1.08s-2.05-.48-2.87-1.08c-.22-.16-.46-.34-.73-.51-.35-.22-.53-.65-.44-1.06l2.68-12.39c.21-.95-.29-1.92-1.19-2.31l-3.95-1.71c-.33-.14-.56-.45-.6-.8l-1.47-11.77c-.06-.51-.49-.89-1-.89h-2.75c-.51,0-.94-.38-1-.89l-.39-3.19c-.06-.51-.49-.89-1-.89h-1.21c-.56,0-1.01-.45-1.01-1.01v-2.69c0-.56-.45-1.01-1.01-1.01h-5.97c-.56,0-1.01.45-1.01,1.01v2.69c0,.56-.45,1.01-1.01,1.01h-1.21c-.51,0-.94.38-1,.89l-.39,3.19c-.06.51-.49.89-1,.89h-2.75c-.51,0-.94.38-1,.89l-1.47,11.77c-.04.35-.27.66-.6.8l-3.94,1.71c-.9.39-1.39,1.35-1.19,2.31l2.69,12.46c.09.41-.08.82-.43,1.05-.22.15-.43.3-.62.44-.82.6-1.47,1.08-2.87,1.08s-2.05-.48-2.87-1.08c-.72-.53-1.58-1.16-2.96-1.39-.6-.1-1.13.4-1.13,1h0c0,.5.34.95.83,1.04.86.15,1.4.54,2.03,1.01.9.66,2.01,1.48,4.09,1.48s3.19-.82,4.09-1.48c.82-.6,1.47-1.08,2.87-1.08s2.05.48,2.87,1.08c.9.66,2.01,1.48,4.09,1.48s3.19-.82,4.09-1.48c.82-.6,1.47-1.08,2.87-1.08s2.05.48,2.87,1.08c.9.66,2.01,1.48,4.09,1.48s3.19-.82,4.09-1.48c.82-.6,1.47-1.08,2.87-1.08s2.05.48,2.87,1.08c.9.66,2.01,1.48,4.09,1.48s3.19-.82,4.09-1.48c.64-.47,1.17-.86,2.03-1.01.49-.09.83-.54.83-1.04h0c0-.61-.54-1.1-1.13-1-1.38.23-2.24.86-2.96,1.39Zm-28.19-34.33h1.45c.56,0,1.01-.45,1.01-1.01v-2.69c0-.56.45-1.01,1.01-1.01h1.84c.56,0,1.01.45,1.01,1.01v2.69c0,.56.45,1.01,1.01,1.01h1.45c.51,0,.94.38,1,.89l.11.88c.07.6-.4,1.13-1,1.13h-9c-.61,0-1.08-.53-1-1.13l.11-.88c.06-.51.49-.89,1-.89Zm-6.16,5.85c.06-.51.49-.89,1-.89h19.09c.51,0,.94.38,1,.89l.95,7.56c.1.78-.69,1.36-1.4,1.05l-9.68-4.19s-.03,0-.04-.01c-.04-.02-.08-.03-.12-.04-.04-.01-.08-.02-.12-.03-.04,0-.08,0-.13,0s-.08,0-.13,0c-.04,0-.08.02-.12.03-.04.01-.08.02-.12.04-.01,0-.03,0-.04.01l-9.68,4.19c-.72.31-1.5-.28-1.4-1.05l.95-7.56Zm24.53,26.99c-2.08,0-3.19.82-4.09,1.48-.82.6-1.47,1.08-2.87,1.08s-2.05-.48-2.87-1.08c-.9-.66-2.01-1.48-4.09-1.48s-3.19.82-4.09,1.48c-.82.6-1.47,1.08-2.87,1.08s-2.05-.48-2.87-1.08c-.9-.66-2.01-1.48-4.09-1.48-.33,0-.62.03-.9.06l-2.62-12.15c-.1-.47.14-.95.59-1.14l14.34-6.21c.67-.29,1.41.2,1.41.93v13.27c0,.56.45,1.01,1.01,1.01h.04c.56,0,1.01-.45,1.01-1.01v-13.27c0-.73.75-1.22,1.41-.93l14.35,6.21c.44.19.69.67.59,1.14l-2.62,12.13c-.24-.03-.5-.04-.78-.04Z" fill="#b3ab50" stroke-width="0"/><path d="m162.3,34.33c-.55-.1-1.08.07-1.79.94l-2.36,2.88-.57-1.18h.48l.08-.47h-2.53l.17-.96.66-.17.06-.35h-2.03l-.06.35.72.17-.42,3.27-2.03-3.8h-1.64c-1.01,0-1.47.29-1.8.81-.28.46-.21.88.13,1.05.26.13.6.01.77-.26.17-.27.12-.53-.12-.64-.12-.06-.32-.07-.45.02h0c.21-.34.69-.48,1.3-.45h.27s-.81,4.66-.81,4.66l-.71.18-.06.35h2.13l.06-.35-.74-.18.55-4.19,2.63,4.76h.69l.67-3.79h.33s.13,0,.13,0l.97,1.65-1.49,1.67h-.35l-.08.47h1.54l.08-.47h-.48l1-1.35.66,1.35h-.49l-.08.47h2.38l.08-.47h-.33l-.94-1.65,1.11-1.42,1.38-1.74c.41-.55.85-.84,1.21-.79v.02c-.15.06-.28.22-.33.37-.1.29.03.51.31.56.29.05.6-.15.71-.46.14-.41-.07-.78-.55-.87Z" fill="#b3ab50" stroke-width="0"/></svg>