<?xml version="1.0" encoding="UTF-8"?><svg id="Layer_1" xmlns="http://www.w3.org/2000/svg" viewBox="0 0 179.24 60.35"><path d="m170.42,46.91c-.82.6-1.47,1.08-2.87,1.08s-2.05-.48-2.87-1.08c-.22-.16-.46-.34-.73-.51-.35-.22-.53-.65-.44-1.06l2.68-12.39c.21-.95-.29-1.92-1.19-2.31l-3.95-1.71c-.33-.14-.56-.45-.6-.8l-1.47-11.77c-.06-.51-.49-.89-1-.89h-2.75c-.51,0-.94-.38-1-.89l-.39-3.19c-.06-.51-.49-.89-1-.89h-1.21c-.56,0-1.01-.45-1.01-1.01v-2.69c0-.56-.45-1.01-1.01-1.01h-5.97c-.56,0-1.01.45-1.01,1.01v2.69c0,.56-.45,1.01-1.01,1.01h-1.21c-.51,0-.94.38-1,.89l-.39,3.19c-.06.51-.49.89-1,.89h-2.75c-.51,0-.94.38-1,.89l-1.47,11.77c-.04.35-.27.66-.6.8l-3.94,1.71c-.9.39-1.39,1.35-1.19,2.31l2.69,12.46c.09.41-.08.82-.43,1.05-.22.15-.43.3-.62.44-.82.6-1.47,1.08-2.87,1.08s-2.05-.48-2.87-1.08c-.72-.53-1.58-1.16-2.96-1.39-.6-.1-1.13.4-1.13,1h0c0,.5.34.95.83,1.04.86.15,1.4.54,2.03,1.01.9.66,2.01,1.48,4.09,1.48s3.19-.82,4.09-1.48c.82-.6,1.47-1.08,2.87-1.08s2.05.48,2.87,1.08c.9.66,2.01,1.48,4.09,1.48s3.19-.82,4.09-1.48c.82-.6,1.47-1.08,2.87-1.08s2.05.48,2.87,1.08c.9.66,2.01,1.48,4.09,1.48s3.19-.82,4.09-1.48c.82-.6,1.47-1.08,2.87-1.08s2.05.48,2.87,1.08c.9.66,2.01,1.48,4.09,1.48s3.19-.82,4.09-1.48c.64-.47,1.17-.86,2.03-1.01.49-.09.83-.54.83-1.04h0c0-.61-.54-1.1-1.13-1-1.38.23-2.24.86-2.96,1.39Zm-28.19-34.33h1.45c.56,0,1.01-.45,1.01-1.01v-2.69c0-.56.45-1.01,1.01-1.01h1.84c.56,0,1.01.45,1.01,1.01v2.69c0,.56.45,1.01,1.01,1.01h1.45c.51,0,.94.38,1,.89l.11.88c.07.6-.4,1.13-1,1.13h-9c-.61,0-1.08-.53-1-1.13l.11-.88c.06-.51.49-.89,1-.89Zm-6.16,5.85c.06-.51.49-.89,1-.89h19.09c.51,0,.94.38,1,.89l.95,7.56c.1.78-.69,1.36-1.4,1.05l-9.68-4.19s-.03,0-.04-.01c-.04-.02-.08-.03-.12-.04-.04-.01-.08-.02-.12-.03-.04,0-.08,0-.13,0s-.08,0-.13,0c-.04,0-.08.02-.12.03-.04.01-.08.02-.12.04-.01,0-.03,0-.04.01l-9.68,4.19c-.72.31-1.5-.28-1.4-1.05l.95-7.56Zm24.53,26.99c-2.08,0-3.19.82-4.09,1.48-.82.6-1.47,1.08-2.87,1.08s-2.05-.48-2.87-1.08c-.9-.66-2.01-1.48-4.09-1.48s-3.19.82-4.09,1.48c-.82.6-1.47,1.08-2.87,1.08s-2.05-.48-2.87-1.08c-.9-.66-2.01-1.48-4.09-1.48-.33,0-.62.03-.9.06l-2.62-12.15c-.1-.47.14-.95.59-1.14l14.34-6.21c.67-.29,1.41.2,1.41.93v13.27c0,.56.45,1.01,1.01,1.01h.04c.56,0,1.01-.45,1.01-1.01v-13.27c0-.73.75-1.22,1.41-.93l14.35,6.21c.44.19.69.67.59,1.14l-2.62,12.13c-.24-.03-.5-.04-.78-.04Z" fill="#b3ab50" stroke-width="0"/><path d="m162.07,33.79c-.55-.1-1.08.07-1.79.94l-2.36,2.88-.57-1.18h.48l.08-.47h-2.53l.17-.96.66-.17.06-.35h-2.03l-.06.35.72.17-.42,3.27-2.03-3.8h-1.64c-1.01,0-1.47.29-1.8.81-.28.46-.21.88.13,1.05.26.13.6.01.77-.26.17-.27.12-.53-.12-.64-.12-.06-.32-.07-.45.02h0c.21-.34.69-.48,1.3-.45h.27s-.81,4.66-.81,4.66l-.71.18-.06.35h2.13l.06-.35-.74-.18.55-4.19,2.63,4.76h.69l.67-3.79h.33s.13,0,.13,0l.97,1.65-1.49,1.67h-.35l-.08.47h1.54l.08-.47h-.48l1-1.35.66,1.35h-.49l-.08.47h2.38l.08-.47h-.33l-.94-1.65,1.11-1.42,1.38-1.74c.41-.55.85-.84,1.21-.79v.02c-.15.06-.28.22-.33.37-.1.29.03.51.31.56.29.05.6-.15.71-.46.14-.41-.07-.78-.55-.87Z" fill="#b3ab50" stroke-width="0"/><path d="m45.59,23.04h0c0-.43-.35-.78-.78-.78h-2.77c-.19,0-.37.07-.52.19l-.5.44c-.4.35-1.02.21-1.23-.27l-1.86-4.23c-.66-1.69-2.01-2.58-3.91-2.58h-15.18c-1.89,0-3.24.89-3.89,2.55l-1.87,4.26c-.21.48-.84.62-1.23.27l-.5-.44c-.14-.12-.33-.19-.52-.19h-2.77c-.43,0-.78.35-.78.78h0c0,.43.35.78.78.78h2.19c.19,0,.37.07.52.19l.29.25c.36.32.36.88-.01,1.19l-.58.49c-1.25,1.05-1.97,2.6-1.97,4.23v5.59c0,.93.44,1.75,1.12,2.28.18.14.31.35.31.58v1.38c0,1.52,1.24,2.76,2.76,2.76h1.61c1.52,0,2.76-1.24,2.76-2.76v-.56c0-.43.35-.78.78-.78h17.37c.43,0,.78.35.78.78v.56c0,1.52,1.24,2.76,2.76,2.76h1.61c1.52,0,2.76-1.24,2.76-2.76v-1.44c0-.24.12-.46.31-.62.61-.53.99-1.31.99-2.18v-5.59c0-1.63-.72-3.18-1.97-4.23l-.58-.49c-.37-.31-.37-.87-.01-1.19l.29-.25c.14-.12.33-.19.52-.19h2.19c.43,0,.78-.35.78-.78Zm-29.21-4.08c.43-1.08,1.2-1.59,2.45-1.59h15.18c1.24,0,2.02.5,2.46,1.62l2.27,5.15c.14.31.06.68-.2.9l-1.15,1.02c-.14.13-.33.2-.52.2H15.96c-.19,0-.38-.07-.52-.2l-1.15-1.02c-.25-.23-.33-.59-.2-.9l2.28-5.18Zm-.93,21.06c0,.66-.53,1.19-1.19,1.19h-1.61c-.66,0-1.19-.53-1.19-1.19v-.56c0-.43.35-.78.78-.78h2.42c.43,0,.78.35.78.78v.56Zm26.06,0c0,.66-.53,1.19-1.19,1.19h-1.61c-.66,0-1.19-.53-1.19-1.19v-.56c0-.43.35-.78.78-.78h3.17s.03,0,.04,0v1.34Zm-.12-12.87c.89.75,1.41,1.86,1.41,3.04v4.81c0,1.17-.95,2.12-2.12,2.12H12.15c-1.17,0-2.12-.95-2.12-2.12v-4.81c0-1.17.52-2.28,1.41-3.03l1.46-1.23.46.4,1.48,1.32c.14.13.33.2.52.2h22.1c.19,0,.38-.07.52-.2l1.48-1.31.46-.4,1.46,1.23Z" fill="#b3ab50" stroke-width="0"/><rect x="19.77" y="34.2" width="13.3" height="1.57" rx=".78" ry=".78" fill="#b3ab50" stroke-width="0"/><path d="m20.83,32.5c.12-.3.04-.64-.19-.86l-2.38-2.25c-.31-.3-.81-.28-1.11.03-.3.31-.28.81.03,1.11l.95.89h-3.45c-1.63,0-2.21-1.63-2.23-1.71-.13-.41-.58-.63-.99-.5-.41.13-.64.58-.5.99.04.11.94,2.79,3.72,2.79h5.42c.32,0,.61-.2.73-.49Z" fill="#b3ab50" stroke-width="0"/><path d="m38.16,31.42h-3.45l.95-.89c.31-.3.33-.79.03-1.11-.3-.31-.79-.33-1.11-.03l-2.38,2.25c-.23.22-.31.56-.19.86.12.3.41.49.73.49h5.42c2.79,0,3.69-2.68,3.72-2.79.13-.41-.09-.85-.5-.98-.41-.14-.85.09-.99.5-.02.07-.6,1.71-2.23,1.71Z" fill="#b3ab50" stroke-width="0"/><path d="m116.58,29.56h-58.49c-.55,0-1-.45-1-1s.45-1,1-1h58.49c.55,0,1,.45,1,1s-.45,1-1,1Z" fill="#b3ab50" stroke-width="0"/></svg>