<svg id="Layer_1" xmlns="http://www.w3.org/2000/svg" viewBox="0 0 259.34 308.97"><g opacity=".3"><line x1="184.9" y1="94.11" x2="184.9" y2="105.79" fill="#b3ab50" stroke="#b3ab50" stroke-linejoin="round" stroke-width="5.84"/><line x1="184.9" y1="73.67" x2="184.9" y2="88.27" fill="none" stroke="#b3ab50" stroke-linejoin="round" stroke-width="5.84"/><line x1="184.9" y1="123.31" x2="184.9" y2="134.99" fill="#b3ab50" stroke="#b3ab50" stroke-linejoin="round" stroke-width="5.84"/><line x1="184.9" y1="140.83" x2="184.9" y2="155.43" fill="#b3ab50" stroke="#b3ab50" stroke-linejoin="round" stroke-width="5.84"/><line x1="164.46" y1="114.55" x2="176.14" y2="114.55" fill="#b3ab50" stroke="#b3ab50" stroke-linejoin="round" stroke-width="5.84"/><line x1="144.02" y1="114.55" x2="158.62" y2="114.55" fill="#b3ab50" stroke="#b3ab50" stroke-linejoin="round" stroke-width="5.84"/><line x1="170.3" y1="129.15" x2="176.14" y2="123.31" fill="#b3ab50" stroke="#b3ab50" stroke-linejoin="round" stroke-width="5.84"/><line x1="155.7" y1="143.75" x2="164.46" y2="134.99" fill="#b3ab50" stroke="#b3ab50" stroke-linejoin="round" stroke-width="5.84"/><line x1="176.14" y1="105.79" x2="170.3" y2="99.95" fill="#b3ab50" stroke="#b3ab50" stroke-linejoin="round" stroke-width="5.84"/><line x1="164.46" y1="94.11" x2="155.7" y2="85.35" fill="none" stroke="#b3ab50" stroke-linejoin="round" stroke-width="5.84"/><line x1="205.34" y1="114.55" x2="193.66" y2="114.55" fill="#b3ab50" stroke="#b3ab50" stroke-linejoin="round" stroke-width="5.84"/><line x1="225.78" y1="114.55" x2="211.18" y2="114.55" fill="none" stroke="#b3ab50" stroke-linejoin="round" stroke-width="5.84"/><line x1="199.5" y1="129.15" x2="193.66" y2="123.31" fill="#b3ab50" stroke="#b3ab50" stroke-linejoin="round" stroke-width="5.84"/><line x1="214.1" y1="143.75" x2="205.34" y2="134.99" fill="none" stroke="#b3ab50" stroke-linejoin="round" stroke-width="5.84"/><line x1="193.66" y1="105.79" x2="199.5" y2="99.95" fill="#b3ab50" stroke="#b3ab50" stroke-linejoin="round" stroke-width="5.84"/><line x1="205.34" y1="94.11" x2="214.1" y2="85.35" fill="none" stroke="#b3ab50" stroke-linejoin="round" stroke-width="5.84"/><line x1="220.47" y1="17.9" x2="220.47" y2="29.58" fill="#b3ab50" stroke="#b3ab50" stroke-linejoin="round" stroke-width="5.84"/><line x1="220.47" y1="58.78" x2="220.47" y2="70.46" fill="#b3ab50" stroke="#b3ab50" stroke-linejoin="round" stroke-width="5.84"/><line x1="194.19" y1="44.18" x2="205.87" y2="44.18" fill="#b3ab50" stroke="#b3ab50" stroke-linejoin="round" stroke-width="5.84"/><line x1="235.07" y1="44.18" x2="246.75" y2="44.18" fill="#b3ab50" stroke="#b3ab50" stroke-linejoin="round" stroke-width="5.84"/><line x1="226.31" y1="38.34" x2="237.99" y2="26.66" fill="#b3ab50" stroke="#b3ab50" stroke-linejoin="round" stroke-width="5.84"/><line x1="237.99" y1="61.7" x2="226.31" y2="50.02" fill="#b3ab50" stroke="#b3ab50" stroke-linejoin="round" stroke-width="5.84"/><line x1="214.63" y1="38.34" x2="202.95" y2="26.66" fill="#b3ab50" stroke="#b3ab50" stroke-linejoin="round" stroke-width="5.84"/><line x1="202.95" y1="61.7" x2="214.63" y2="50.02" fill="#b3ab50" stroke="#b3ab50" stroke-linejoin="round" stroke-width="5.84"/><line x1="214.28" y1="207.36" x2="214.28" y2="221.96" fill="#b3ab50" stroke="#b3ab50" stroke-linejoin="round" stroke-width="5.84"/><line x1="214.28" y1="236.56" x2="214.28" y2="251.16" fill="#b3ab50" stroke="#b3ab50" stroke-linejoin="round" stroke-width="5.84"/><line x1="233.24" y1="218.31" x2="220.91" y2="225.43" fill="#b3ab50" stroke="#b3ab50" stroke-linejoin="round" stroke-width="5.84"/><line x1="207.65" y1="233.09" x2="195.31" y2="240.21" fill="#b3ab50" stroke="#b3ab50" stroke-linejoin="round" stroke-width="5.84"/><line x1="233.24" y1="240.21" x2="220.91" y2="233.09" fill="#b3ab50" stroke="#b3ab50" stroke-linejoin="round" stroke-width="5.84"/><line x1="207.65" y1="225.43" x2="195.31" y2="218.31" fill="#b3ab50" stroke="#b3ab50" stroke-linejoin="round" stroke-width="5.84"/><path d="m184.84,121.45c3.59.19,6.8-2.83,6.98-6.56.18-3.8-2.71-7.04-6.46-7.23-3.95-.2-7.19,2.72-7.37,6.64-.18,3.83,2.79,6.94,6.86,7.15Z" fill="#b3ab50" stroke-width="0"/><path d="m220.42,50.35c3.21.17,6.08-2.53,6.24-5.87.16-3.4-2.42-6.29-5.78-6.46-3.53-.18-6.43,2.43-6.59,5.94-.16,3.43,2.5,6.2,6.13,6.4Z" fill="#b3ab50" stroke-width="0"/><path d="m214.23,234.78c2.87.15,5.44-2.26,5.58-5.25.14-3.04-2.17-5.63-5.17-5.78-3.16-.16-5.75,2.17-5.9,5.31-.15,3.07,2.24,5.55,5.49,5.73Z" fill="#b3ab50" stroke-width="0"/></g></svg>